<svg xmlns="http://www.w3.org/2000/svg" viewBox="0 0 92 20" fill="none">
  <path d="M8.034 3.792c0 2.106 1.269 3.738 4.017 4.871 8.036 3.315 2.725 8.879 2.725 8.879l.803.8c2.714-1.79 4.503-4.859 4.503-8.343 0-4.838-3.449-8.878-8.033-9.8C9.09-.397 8.033 1.765 8.033 3.79l.001.002Z" fill="currentColor"/>
  <path d="M12.049 16.21c0-2.107-1.269-3.738-4.017-4.872C-.003 8.022 5.308 2.458 5.308 2.458l-.803-.8C1.791 3.449 0 6.517 0 10c0 4.838 3.449 8.878 8.033 9.8 2.958.595 4.016-1.567 4.016-3.592v.001Z" fill="currentColor"/>
  <path d="M26.734 12.878h3.313c.134 1.975 1.339 3.515 4.519 3.515 2.878 0 3.648-1.272 3.648-2.51 0-2.142-2.276-2.377-4.485-2.845-2.979-.702-6.393-1.573-6.393-5.12 0-2.946 2.376-4.92 6.493-4.92 4.686 0 6.928 2.51 7.162 5.455h-3.313c-.234-1.305-.937-2.811-3.782-2.811-2.209 0-3.146.87-3.146 2.142 0 1.774 1.908 1.941 4.318 2.477 3.146.736 6.56 1.64 6.56 5.455 0 3.313-2.544 5.322-7.029 5.322-5.188 0-7.765-2.678-7.865-6.158Z" fill="currentColor"/>
  <path d="M54.643 18.568v-2.41h-.067c-1.104 1.774-3.046 2.879-5.823 2.879-3.414 0-5.59-1.975-5.59-4.887 0-3.816 2.879-4.954 7.129-5.757 2.678-.502 4.318-.837 4.318-2.51 0-1.238-.736-2.276-3.246-2.276-2.979 0-3.883.937-4.05 3.213h-3.347c.167-3.28 2.309-5.857 7.53-5.857 3.514 0 6.325 1.473 6.325 5.89v11.715h-3.179Zm-.034-6.66V9.465c-.535.502-2.008.87-3.748 1.238-3.012.602-4.284 1.439-4.284 3.213 0 1.607.87 2.477 2.912 2.477 2.945 0 5.12-1.506 5.12-4.485Z" fill="currentColor"/>
  <path d="M88.799 18.568v-2.41h-.066c-1.105 1.774-3.046 2.879-5.824 2.879-3.414 0-5.59-1.975-5.59-4.887 0-3.816 2.879-4.954 7.129-5.757 2.678-.502 4.318-.837 4.318-2.51 0-1.238-.736-2.276-3.246-2.276-2.978 0-3.882.937-4.05 3.213h-3.346c.167-3.28 2.309-5.857 7.53-5.857 3.514 0 6.325 1.473 6.325 5.89v11.715H88.8Zm-.033-6.66V9.465c-.536.502-2.009.87-3.749 1.238-3.012.602-4.284 1.439-4.284 3.213 0 1.607.87 2.477 2.912 2.477 2.945 0 5.12-1.506 5.12-4.485Z" fill="currentColor"/>
  <path d="M75.228 6.72v11.849h-3.28V7.624c0-2.276-1.004-3.816-3.48-3.816-2.812 0-4.62 1.707-4.62 4.284v10.476h-3.28V1.5h3.28v2.142h.067C64.818 2.336 66.592.997 69.538.997c3.146 0 5.69 1.807 5.69 5.723Z" fill="currentColor"/>
</svg>
